<svg xmlns="http://www.w3.org/2000/svg" style="width:100%;height:100%" viewBox="0 0 1280 1280">
  <path fill="#aad8f1" d="M833.75 191.77c67.41 12.13 64.94 101.87-2.36 111.73H471.25c-46.85 2.46-80.12 30.13-95.13 63.25-34.45 76.02 19.21 150.27 87.63 158.31 37.61 1.94 81.53.49 121.75.94v112.06c-42.26-.34-88.05.43-128.75-.45-68.92-7.6-115.11-38.09-150.84-78.86-119.16-143.85-23.18-355.58 153.84-366.78 123.08-.91 251.85-.52 374-.2"/>
  <path fill="#d3b6e9" d="M479.75 359.13c116.87-.11 239.52-.42 355.5.15 89.7 11.62 155.06 71.36 182.15 143.97 55.36 156.86-61.8 303.96-210.15 302.5-.42-36.1-.42-76.9 0-113 83.51 1.65 141.26-91.51 96.25-168.16-16.61-27.63-41.86-47.15-80.25-53.26-112.69-.95-233.31.27-346-.64-65.31-12.12-62.97-102.26 2.5-111.56"/>
  <path fill="#a4e3c4" d="M640.02 526h173.23c68.99 9.41 67.44 104.78-2.47 112h-58.25c-.27 61.46.4 126.47-.35 186.25-10.52 136.16-113.48 240.76-242.43 257.28-20.71 3.16-49.09 1.52-73.36 2.06-70.79-5.11-74.01-101.67-6.64-113.71 23.61-1.02 54.09.95 75.89-2.92 68.15-12.09 126.95-72.91 134.07-146.71z"/>
  <path fill="#d3b6e9" d="M474.5 695.5H583c-.53 42.11 1.2 86.43-1.16 126.75-9.99 46.82-45.73 83.88-97.96 89.25-.09.01-9.38 0-9.38 0z"/>
  <path fill="#fae07b" d="M894.31 961.75c-64.25 64.06-149.37-30.64-81.98-88.5 61.57-39.09 124.89 32.04 81.98 88.5"/>
</svg>
